<?xml version="1.0" standalone="no"?>
<!DOCTYPE svg PUBLIC "-//W3C//DTD SVG 20010904//EN"
 "http://www.w3.org/TR/2001/REC-SVG-20010904/DTD/svg10.dtd">
<svg version="1.0" xmlns="http://www.w3.org/2000/svg"
 width="200.000000pt" height="200.000000pt" viewBox="0 0 200.000000 200.000000"
 preserveAspectRatio="xMidYMid meet">

<g transform="translate(0.000000,200.000000) scale(0.100000,-0.100000)"
fill="#000000" stroke="none">
<path d="M0 1000 l0 -1000 134 0 134 0 27 45 c32 56 114 122 161 131 52 10
121 -1 211 -32 99 -35 181 -37 238 -7 22 12 74 52 115 88 130 116 181 131 404
121 161 -8 215 -1 291 37 80 40 110 95 139 250 10 48 23 102 31 120 14 34 86
107 105 107 7 0 10 198 10 570 l0 570 -1000 0 -1000 0 0 -1000z m1052 491 c14
-20 14 -20 26 0 8 12 23 19 42 19 37 0 37 -4 4 -52 l-27 -38 27 -40 c14 -22
26 -42 26 -45 0 -3 -15 -5 -34 -5 -27 0 -36 5 -42 22 l-7 22 -17 -22 c-17 -21
-70 -32 -70 -14 0 4 11 24 25 45 l26 37 -26 37 c-14 21 -25 41 -25 45 0 17 59
7 72 -11z m178 7 c0 -5 0 -44 0 -88 l0 -80 -30 0 c-28 0 -30 2 -30 38 0 20 3
61 7 90 5 49 8 53 30 50 13 -2 23 -6 23 -10z m110 -31 l25 -42 3 38 c3 33 6
37 31 37 28 0 28 -1 24 -52 -8 -106 -12 -118 -38 -118 -16 0 -30 10 -41 29
-20 34 -34 32 -34 -5 0 -19 -5 -24 -25 -24 -28 0 -30 10 -19 119 6 53 9 61 28
61 14 0 29 -14 46 -43z m-520 -27 c0 -51 3 -60 18 -60 16 0 48 -37 40 -46 -2
-2 -30 -6 -61 -10 l-57 -7 0 92 0 91 30 0 30 0 0 -60z m692 23 c-3 -30 -1 -33
22 -33 22 0 26 4 26 30 0 27 3 30 31 30 l30 0 -6 -57 c-11 -105 -14 -113 -41
-113 -20 0 -24 5 -24 31 0 26 -3 30 -22 27 -17 -2 -24 -11 -26 -30 -3 -22 -9
-28 -28 -28 -22 0 -24 4 -24 44 0 24 3 64 6 90 6 43 9 47 33 44 23 -3 26 -7
23 -35z m-811 -50 c19 -42 36 -81 38 -86 2 -5 -24 -6 -63 -2 -46 5 -66 4 -66
-4 0 -6 -11 -11 -25 -11 -14 0 -25 4 -25 9 0 6 14 46 32 90 26 67 35 81 53 81
17 0 28 -15 56 -77z m-171 42 c0 -22 -4 -25 -40 -25 -22 0 -40 -4 -40 -10 0
-5 18 -10 40 -10 33 0 40 -3 40 -19 0 -14 -11 -22 -37 -29 l-38 -10 38 -1 c34
-1 38 -4 35 -23 -3 -20 -10 -23 -59 -26 l-56 -3 -7 47 c-3 26 -6 64 -6 85 0
41 6 44 93 48 33 1 37 -2 37 -24z m-186 -6 c49 -23 58 -106 16 -144 -11 -10
-42 -20 -68 -23 l-49 -4 -6 53 c-12 98 -9 117 16 122 42 8 66 7 91 -4z m1255
-245 c12 -9 31 -30 41 -46 l18 -31 29 41 c28 41 29 41 91 42 58 0 63 -2 72
-25 8 -21 4 -33 -30 -78 -22 -28 -40 -55 -40 -58 0 -4 13 -9 29 -12 61 -12
114 -111 92 -169 -18 -48 -50 -68 -107 -68 -63 0 -97 14 -115 46 -16 31 -24
30 -46 -6 -16 -28 -21 -30 -83 -31 -36 -1 -70 -1 -76 0 -7 1 -13 -28 -17 -73
-8 -111 -49 -177 -129 -211 -49 -20 -167 -20 -216 1 -45 18 -97 67 -113 105
-14 35 -25 37 -33 6 -9 -37 -67 -93 -114 -111 -60 -23 -185 -21 -239 3 -57 26
-133 98 -133 126 0 12 18 47 40 78 35 50 37 57 19 57 -11 0 -22 7 -26 16 -7
20 37 345 50 362 8 9 55 12 200 10 181 -3 190 -4 197 -23 6 -16 -3 -38 -37
-88 l-45 -67 -69 0 c-55 0 -69 -3 -69 -15 0 -11 11 -15 38 -15 56 -1 122 -39
158 -93 l32 -46 4 102 c4 107 21 160 69 208 81 81 258 79 340 -4 l25 -26 17
38 c28 63 122 93 176 55z m-1119 -390 c6 -14 10 -45 10 -70 l0 -44 -194 0
c-213 0 -206 -2 -206 63 0 18 3 42 6 55 6 22 8 22 190 22 l184 0 10 -26z"/>
<path d="M640 1395 c0 -8 4 -15 10 -15 5 0 7 7 4 15 -4 8 -8 15 -10 15 -2 0
-4 -7 -4 -15z"/>
<path d="M289 1405 c-8 -7 2 -75 11 -75 11 0 40 29 40 40 0 20 -40 47 -51 35z"/>
<path d="M1453 996 c4 -10 7 -47 7 -84 l0 -66 49 70 49 69 -36 6 c-21 3 -46
10 -56 14 -16 7 -18 5 -13 -9z"/>
<path d="M1199 963 c-9 -10 -15 -51 -17 -118 -3 -84 -1 -103 13 -115 14 -11
19 -11 33 4 32 32 27 246 -7 246 -4 0 -15 -7 -22 -17z"/>
<path d="M728 799 c-9 -5 -41 -10 -72 -10 -31 -1 -56 -5 -56 -9 0 -15 60 -58
89 -65 38 -8 85 13 89 41 4 28 -28 56 -50 43z"/>
<path d="M1957 263 c-19 -16 -38 -38 -41 -50 -3 -12 -27 -39 -52 -62 -52 -45
-112 -61 -172 -43 -136 39 -146 39 -204 11 -37 -18 -108 -92 -108 -112 0 -4
140 -7 310 -7 l310 0 0 145 c0 80 -2 145 -3 145 -2 0 -20 -12 -40 -27z"/>
</g>
</svg>
