<svg width="266" height="320" viewBox="0 0 266 320" fill="none" xmlns="http://www.w3.org/2000/svg">
<g clip-path="url(#clip0_1_27)">
<rect width="294" height="320" transform="translate(-9)" fill="white"/>
<path d="M224 0H-9V261H224V0Z" fill="white"/>
<mask id="mask0_1_27" style="mask-type:luminance" maskUnits="userSpaceOnUse" x="6" y="10" width="959" height="320">
<path d="M965 10H6V329.701H965V10Z" fill="white"/>
</mask>
<g mask="url(#mask0_1_27)">
<path fill-rule="evenodd" clip-rule="evenodd" d="M181.001 235.642C179.319 250.121 170.905 261.717 157.872 267.524C150.614 270.758 140.869 272.505 133.156 271.956C121.122 271.477 109.818 268.425 99.397 262.847C95.6742 260.853 90.1244 256.872 85.8635 253.143C84.7842 252.201 84.656 251.597 85.3702 250.54C85.7558 249.934 86.4668 248.84 88.0386 246.439C90.3172 242.957 90.602 242.52 90.8581 242.112C91.5879 240.945 92.7722 240.843 93.9413 241.802C94.064 241.902 94.064 241.902 94.157 241.977C94.3488 242.132 94.3488 242.132 94.8005 242.499C95.2589 242.871 95.5303 243.09 95.6396 243.176C106.878 252.355 119.967 257.648 133.181 258.177C151.565 257.916 164.785 249.296 167.153 236.061C169.758 221.495 158.793 208.912 137.338 201.899C130.629 199.706 113.669 192.627 110.542 190.714C95.8564 181.73 88.9909 169.961 89.9662 155.426C91.4613 135.277 109.399 120.249 132.065 120.148C142.202 120.127 152.317 122.323 162.033 126.593C165.474 128.105 171.617 131.591 173.738 133.242C174.959 134.177 175.201 135.268 174.5 136.444C174.11 137.126 173.463 138.207 172.101 140.461L172.085 140.486C170.292 143.455 170.236 143.548 169.825 144.242C169.113 145.371 168.278 145.476 166.996 144.628C156.598 137.344 145.071 133.68 132.394 133.415C116.611 133.741 104.782 143.535 104.004 156.878C103.797 168.929 112.465 177.727 131.189 184.435C169.194 197.17 183.738 212.101 181.001 235.642ZM134.065 27.6042C158.808 27.6042 178.978 52.0895 179.921 82.7399H88.2093C89.153 52.0895 109.322 27.6042 134.065 27.6042ZM262.121 88.5024C262.121 85.3198 259.663 82.7399 256.632 82.7399H197.187C195.729 42.27 168.026 10 134.065 10C100.105 10 72.4021 42.27 70.9437 82.7399L11.4138 82.7411C8.42905 82.7976 6.02589 85.356 6.02589 88.5024C6.02589 88.6529 6.03126 88.8022 6.042 88.9492H6L14.486 284.009C14.4871 284.552 14.5064 285.1 14.5452 285.65C14.5538 285.775 14.5635 285.898 14.5732 286.021L14.5915 286.433L14.612 286.455C15.9014 300.028 25.3481 310.96 38.1933 311.465L38.2225 311.494H227.055C227.145 311.495 227.235 311.496 227.324 311.496C227.413 311.496 227.503 311.495 227.592 311.494H227.994L228.003 311.486C241.072 311.114 251.658 300.029 252.777 286.288L252.783 286.282L252.792 286.097C252.802 285.952 252.812 285.809 252.821 285.664C252.842 285.318 252.855 284.973 252.861 284.63L262.12 88.8H262.113C262.119 88.7016 262.121 88.602 262.121 88.5024ZM891.639 215.632C895.278 203.257 906.279 195.007 919.116 195.007C931.37 195.007 943.036 203.684 947.067 215.608L947.343 216.428H891.404L891.639 215.632ZM959.793 233.56C959.869 233.563 959.869 233.563 959.975 233.565C960.09 233.563 960.09 233.563 960.205 233.56C962.881 233.432 965 231.051 965 228.154C965 228.013 965 227.892 964.99 227.698C964.99 227.662 964.99 227.591 964.99 227.364C964.99 200.034 944.441 177.886 919.1 177.886C893.76 177.886 873.213 200.034 873.213 227.364C873.213 229.401 873.326 231.433 873.556 233.452L873.571 233.56L873.642 234.093C874.904 243.927 878.928 252.952 885.282 260.255C885.279 260.252 885.286 260.259 885.318 260.297C892.364 268.383 901.931 273.893 912.542 275.954L912.68 275.982V275.968L913.369 276.088C913.723 276.15 914.097 276.212 914.598 276.293C928.563 278.044 940.951 275.945 951.44 270.437C954.019 269.08 956.35 267.582 958.364 266C959.006 265.491 959.591 264.998 960.09 264.537C960.349 264.299 960.56 264.099 960.665 263.983C963.034 261.441 963.187 260.539 961.759 258.218C960.186 255.609 958.795 253.386 957.606 251.546C957.194 250.902 956.829 250.353 956.522 249.897C956.359 249.647 956.359 249.647 956.254 249.489C956.206 249.427 956.206 249.427 956.177 249.388L956.168 249.368C954.873 247.689 953.991 247.536 952.552 248.857C952.399 248.998 951.89 249.41 951.795 249.512C941.704 258.857 927.923 261.863 914.162 258.86C911.6 258.143 909.203 257.231 906.996 256.131C898.374 251.623 892.266 243.591 890.503 234.294L890.364 233.56H959.793ZM782.448 215.632C786.085 203.257 797.087 195.007 809.924 195.007C822.177 195.007 833.843 203.684 837.875 215.608L838.15 216.428H782.213L782.448 215.632ZM850.6 233.56C850.676 233.563 850.676 233.563 850.787 233.565C850.897 233.563 850.897 233.563 851.01 233.56C853.688 233.432 855.808 231.051 855.808 228.154C855.808 228.013 855.803 227.892 855.793 227.698C855.795 227.662 855.795 227.591 855.795 227.364C855.795 200.034 835.248 177.886 809.908 177.886C784.569 177.886 764.02 200.034 764.02 227.364C764.02 229.401 764.136 231.433 764.364 233.452L764.378 233.56L764.45 234.093C765.711 243.927 769.735 252.952 776.09 260.255C776.087 260.252 776.093 260.259 776.126 260.297C783.172 268.383 792.739 273.893 803.349 275.954L803.487 275.982V275.968L804.177 276.088C804.531 276.15 804.905 276.212 805.406 276.293C819.372 278.044 831.759 275.945 842.248 270.437C844.832 269.08 847.153 267.582 849.166 266C849.814 265.491 850.396 264.998 850.9 264.537C851.159 264.299 851.366 264.099 851.475 263.983C853.842 261.441 853.99 260.539 852.562 258.218C850.99 255.609 849.604 253.386 848.414 251.546C847.999 250.902 847.637 250.353 847.334 249.897C847.165 249.647 847.164 249.647 847.057 249.489C847.017 249.427 847.017 249.427 846.987 249.388L846.978 249.368C845.683 247.689 844.798 247.536 843.363 248.857C843.21 248.998 842.699 249.41 842.606 249.512C832.516 258.857 818.734 261.863 804.974 258.86C802.411 258.143 800.015 257.231 797.807 256.131C789.186 251.623 783.079 243.591 781.316 234.294L781.176 233.56H850.6ZM699.112 260.81C682.046 260.81 668.088 246.7 667.659 229.018V227.354C668.083 209.701 682.046 195.589 699.112 195.589C716.488 195.589 730.574 210.189 730.574 228.199C730.574 246.21 716.488 260.81 699.112 260.81ZM699.123 178.288C687.929 178.288 677.233 182.264 668.637 189.556L667.66 190.384V181.258C667.66 178.824 667.159 178.288 664.797 178.288H653.81C651.418 178.288 650.946 178.785 650.946 181.258V326.732C650.946 329.121 651.48 329.701 653.81 329.701H664.797C667.136 329.701 667.66 329.134 667.66 326.732V266.065L668.637 266.893C677.234 274.186 687.93 278.161 699.123 278.161C725.729 278.161 747.298 255.804 747.298 228.224C747.298 200.646 725.729 178.288 699.123 178.288ZM585.983 259.696C568.572 259.696 554.458 245.224 554.458 227.366C554.458 209.509 568.573 195.036 585.983 195.036C603.391 195.036 617.506 209.509 617.506 227.366C617.506 245.222 603.392 259.696 585.983 259.696ZM585.994 177.886C559.333 177.886 537.725 200.051 537.725 227.391C537.725 254.73 559.333 276.896 585.994 276.896C612.652 276.896 634.258 254.73 634.258 227.391C634.258 200.051 612.653 177.886 585.994 177.886ZM478.395 178.985C468.663 178.985 459.246 182.248 451.433 188.278L450.483 189.011V121.45C450.483 119.211 449.779 118.48 447.632 118.48H436.133C433.811 118.48 433.28 119.059 433.28 121.45V275.573C433.28 277.907 433.853 278.546 436.133 278.546H447.632C449.765 278.546 450.483 277.779 450.483 275.573V225.232C450.603 209.385 463.067 196.594 478.395 196.594C493.763 196.594 506.241 209.447 506.306 225.347V275.573C506.306 278.123 506.713 278.545 509.159 278.545H520.63C523.061 278.545 523.482 278.111 523.482 275.573V225.199C523.391 199.788 503.071 178.985 478.395 178.985ZM318.161 250.589L318.134 250.632C316.495 253.222 315.809 254.312 315.424 254.937C314.132 256.944 314.293 257.838 316.266 259.578C320.873 263.451 326.795 267.518 330.79 269.554C341.906 275.222 353.913 278.218 366.636 278.489C374.854 278.921 385.177 276.883 392.863 273.309C406.78 266.836 415.643 254.219 417.196 238.68C419.713 213.5 404.001 197.76 363.531 185.075L363.521 185.071C344.666 178.73 335.809 170.301 335.806 158.531C336.361 145.523 347.927 135.805 363.531 135.199C376.102 135.232 387.216 138.713 398.135 146.04C400.438 147.497 401.5 147.228 403.048 145.134C403.226 144.824 403.721 144.075 405.791 140.975L405.798 140.965C407.73 138.07 408.367 137.104 408.525 136.818C409.829 134.259 409.643 133.272 407.288 131.531C404.969 129.799 398.437 126.255 394.702 124.7C384.313 120.378 373.572 118.279 362.882 118.496C338.554 119.047 319.581 135.545 318.331 157.188C317.538 172.821 325.147 185.392 341.045 194.686C345.501 197.139 361.798 203.562 369.403 205.885C391.03 212.489 402.306 224.638 399.975 238.971C397.86 251.994 384.774 260.655 366.411 261.248C353.096 260.959 339.679 255.87 328.029 246.742C327.972 246.697 327.675 246.468 327.132 246.045C326.366 245.45 326.366 245.45 326.251 245.361C323.877 243.651 322.48 243.794 321.03 246.046C320.855 246.325 319.051 249.185 318.161 250.589Z" fill="#EE4D2D"/>
</g>
</g>
<defs>
<clipPath id="clip0_1_27">
<rect width="294" height="320" fill="white" transform="translate(-9)"/>
</clipPath>
</defs>
</svg>
