<svg width="1242" height="320" viewBox="0 0 1242 320" fill="none" xmlns="http://www.w3.org/2000/svg">
<rect width="1242" height="320" fill="white"/>
<rect y="11" width="988" height="256" fill="white"/>
<path d="M775.312 159.756C774.555 153.032 771.43 147.824 765.938 144.131C760.445 140.39 753.532 138.52 745.199 138.52C739.233 138.52 734.072 139.467 729.716 141.361C725.36 143.207 721.974 145.764 719.56 149.031C717.192 152.251 716.009 155.92 716.009 160.04C716.009 163.496 716.813 166.479 718.423 168.989C720.08 171.498 722.235 173.605 724.886 175.31C727.585 176.967 730.473 178.364 733.551 179.5C736.629 180.589 739.588 181.489 742.429 182.199L756.634 185.892C761.274 187.028 766.032 188.567 770.909 190.509C775.786 192.45 780.308 195.007 784.474 198.179C788.641 201.351 792.003 205.281 794.56 209.969C797.164 214.656 798.466 220.267 798.466 226.801C798.466 235.04 796.335 242.355 792.074 248.747C787.86 255.139 781.728 260.182 773.679 263.875C765.677 267.568 755.994 269.415 744.631 269.415C733.741 269.415 724.318 267.687 716.364 264.23C708.409 260.774 702.183 255.873 697.685 249.528C693.187 243.136 690.701 235.561 690.227 226.801H712.244C712.67 232.057 714.375 236.437 717.358 239.94C720.388 243.397 724.247 245.977 728.935 247.682C733.67 249.339 738.854 250.168 744.489 250.168C750.691 250.168 756.207 249.197 761.037 247.256C765.914 245.267 769.749 242.521 772.543 239.017C775.336 235.466 776.733 231.323 776.733 226.588C776.733 222.279 775.502 218.752 773.04 216.006C770.625 213.259 767.334 210.987 763.168 209.188C759.048 207.388 754.384 205.802 749.176 204.429L731.989 199.741C720.341 196.569 711.108 191.905 704.29 185.75C697.519 179.595 694.134 171.451 694.134 161.318C694.134 152.937 696.406 145.622 700.952 139.372C705.497 133.122 711.652 128.269 719.418 124.812C727.183 121.309 735.942 119.557 745.696 119.557C755.545 119.557 764.233 121.285 771.761 124.741C779.337 128.198 785.303 132.956 789.659 139.017C794.015 145.03 796.288 151.943 796.477 159.756H775.312ZM892.092 221.759V157.909H913.398V267H892.518V248.108H891.381C888.872 253.932 884.847 258.785 879.308 262.668C873.815 266.503 866.973 268.42 858.782 268.42C851.774 268.42 845.572 266.882 840.174 263.804C834.824 260.679 830.61 256.062 827.532 249.955C824.502 243.847 822.987 236.295 822.987 227.298V157.909H844.222V224.741C844.222 232.175 846.282 238.094 850.401 242.497C854.521 246.901 859.871 249.102 866.452 249.102C870.43 249.102 874.383 248.108 878.313 246.119C882.29 244.131 885.581 241.124 888.185 237.099C890.837 233.075 892.139 227.961 892.092 221.759ZM941.932 307.909V157.909H962.67V175.594H964.446C965.677 173.321 967.453 170.693 969.773 167.71C972.093 164.727 975.313 162.123 979.432 159.898C983.551 157.625 988.996 156.489 995.767 156.489C1004.57 156.489 1012.43 158.714 1019.35 163.165C1026.26 167.616 1031.68 174.031 1035.61 182.412C1039.59 190.793 1041.58 200.878 1041.58 212.668C1041.58 224.457 1039.61 234.566 1035.68 242.994C1031.75 251.375 1026.35 257.838 1019.49 262.384C1012.62 266.882 1004.79 269.131 995.98 269.131C989.351 269.131 983.93 268.018 979.716 265.793C975.549 263.567 972.282 260.963 969.915 257.98C967.547 254.997 965.724 252.346 964.446 250.026H963.168V307.909H941.932ZM962.741 212.455C962.741 220.125 963.854 226.848 966.08 232.625C968.305 238.402 971.525 242.923 975.739 246.19C979.953 249.41 985.114 251.02 991.222 251.02C997.566 251.02 1002.87 249.339 1007.13 245.977C1011.39 242.568 1014.61 237.952 1016.79 232.128C1019.02 226.304 1020.13 219.746 1020.13 212.455C1020.13 205.258 1019.04 198.795 1016.86 193.065C1014.73 187.336 1011.51 182.814 1007.2 179.5C1002.94 176.186 997.614 174.528 991.222 174.528C985.066 174.528 979.858 176.115 975.597 179.287C971.383 182.459 968.187 186.886 966.009 192.568C963.83 198.25 962.741 204.879 962.741 212.455ZM1112.39 269.202C1101.64 269.202 1092.38 266.905 1084.62 262.312C1076.9 257.672 1070.93 251.162 1066.72 242.781C1062.55 234.353 1060.47 224.481 1060.47 213.165C1060.47 201.991 1062.55 192.142 1066.72 183.619C1070.93 175.097 1076.8 168.444 1084.33 163.662C1091.91 158.88 1100.76 156.489 1110.89 156.489C1117.05 156.489 1123.02 157.507 1128.79 159.543C1134.57 161.579 1139.75 164.775 1144.35 169.131C1148.94 173.487 1152.56 179.145 1155.21 186.105C1157.86 193.018 1159.19 201.422 1159.19 211.318V218.847H1072.47V202.938H1138.38C1138.38 197.35 1137.24 192.402 1134.97 188.094C1132.7 183.738 1129.5 180.305 1125.38 177.795C1121.31 175.286 1116.53 174.031 1111.04 174.031C1105.07 174.031 1099.86 175.499 1095.41 178.435C1091.01 181.323 1087.6 185.111 1085.18 189.798C1082.82 194.438 1081.63 199.481 1081.63 204.926V217.355C1081.63 224.647 1082.91 230.849 1085.47 235.963C1088.07 241.077 1091.7 244.983 1096.34 247.682C1100.98 250.333 1106.4 251.659 1112.6 251.659C1116.62 251.659 1120.29 251.091 1123.61 249.955C1126.92 248.771 1129.79 247.019 1132.2 244.699C1134.62 242.379 1136.46 239.514 1137.74 236.105L1157.84 239.727C1156.23 245.646 1153.34 250.83 1149.18 255.281C1145.06 259.685 1139.87 263.117 1133.62 265.58C1127.42 267.994 1120.34 269.202 1112.39 269.202ZM1182.75 267V157.909H1203.28V175.239H1204.41C1206.4 169.367 1209.91 164.751 1214.93 161.389C1219.99 157.98 1225.72 156.276 1232.11 156.276C1233.44 156.276 1235 156.323 1236.8 156.418C1238.65 156.512 1240.09 156.631 1241.13 156.773V177.085C1240.28 176.848 1238.77 176.588 1236.59 176.304C1234.41 175.973 1232.23 175.807 1230.05 175.807C1225.03 175.807 1220.56 176.872 1216.63 179.003C1212.75 181.086 1209.67 183.998 1207.4 187.739C1205.12 191.432 1203.99 195.646 1203.99 200.381V267H1182.75Z" fill="#EE4D2D"/>
<g clip-path="url(#clip0_0_1)">
<path d="M601 0H368V261H601V0Z" fill="white"/>
<mask id="mask0_0_1" style="mask-type:luminance" maskUnits="userSpaceOnUse" x="368" y="0" width="1000" height="320">
<path d="M1368 0H368V319.701H1368V0Z" fill="white"/>
</mask>
<g mask="url(#mask0_0_1)">
<path fill-rule="evenodd" clip-rule="evenodd" d="M550.483 225.642C548.729 240.121 539.955 251.717 526.365 257.524C518.797 260.758 508.635 262.505 500.592 261.956C488.044 261.477 476.256 258.425 465.39 252.847C461.508 250.853 455.721 246.872 451.278 243.143C450.153 242.201 450.019 241.597 450.763 240.54C451.166 239.934 451.907 238.84 453.546 236.439C455.922 232.957 456.219 232.52 456.486 232.112C457.247 230.945 458.482 230.843 459.701 231.802C459.829 231.902 459.829 231.902 459.926 231.977C460.126 232.132 460.126 232.132 460.597 232.499C461.075 232.871 461.358 233.09 461.472 233.176C473.191 242.355 486.839 247.648 500.618 248.177C519.788 247.916 533.573 239.296 536.043 226.061C538.759 211.495 527.325 198.912 504.953 191.899C497.957 189.706 480.272 182.627 477.011 180.714C461.698 171.73 454.539 159.961 455.556 145.426C457.115 125.277 475.82 110.249 499.455 110.148C510.025 110.127 520.572 112.323 530.704 116.593C534.292 118.105 540.698 121.591 542.909 123.242C544.183 124.177 544.435 125.268 543.704 126.444C543.297 127.126 542.623 128.207 541.202 130.461L541.186 130.486C539.316 133.455 539.258 133.548 538.829 134.242C538.087 135.371 537.216 135.476 535.879 134.628C525.036 127.344 513.017 123.68 499.798 123.415C483.34 123.741 471.005 133.535 470.194 146.878C469.978 158.929 479.017 167.727 498.541 174.435C538.171 187.17 553.337 202.101 550.483 225.642ZM501.54 17.6042C527.341 17.6042 548.373 42.0895 549.357 72.7399H453.724C454.708 42.0895 475.739 17.6042 501.54 17.6042ZM635.071 78.5024C635.071 75.3198 632.508 72.7399 629.347 72.7399H567.361C565.84 32.27 536.953 0 501.54 0C466.128 0 437.241 32.27 435.72 72.7399L373.645 72.7411C370.533 72.7976 368.027 75.356 368.027 78.5024C368.027 78.6529 368.033 78.8022 368.044 78.9492H368L376.849 274.009C376.85 274.552 376.87 275.1 376.91 275.65C376.919 275.775 376.93 275.898 376.94 276.021L376.959 276.433L376.98 276.455C378.325 290.028 388.175 300.96 401.57 301.465L401.6 301.494H598.506C598.6 301.495 598.693 301.496 598.786 301.496C598.879 301.496 598.973 301.495 599.066 301.494H599.485L599.494 301.486C613.122 301.114 624.161 290.029 625.327 276.288L625.334 276.282L625.343 276.097C625.354 275.952 625.364 275.809 625.373 275.664C625.395 275.318 625.409 274.973 625.415 274.63L635.07 78.8H635.063C635.069 78.7016 635.071 78.602 635.071 78.5024ZM1291.5 205.632C1295.3 193.257 1306.77 185.007 1320.15 185.007C1332.93 185.007 1345.1 193.684 1349.3 205.608L1349.59 206.428H1291.26L1291.5 205.632ZM1362.57 223.56C1362.65 223.563 1362.65 223.563 1362.76 223.565C1362.88 223.563 1362.88 223.563 1363 223.56C1365.79 223.432 1368 221.051 1368 218.154C1368 218.013 1368 217.892 1367.99 217.698C1367.99 217.662 1367.99 217.591 1367.99 217.364C1367.99 190.034 1346.56 167.886 1320.14 167.886C1293.71 167.886 1272.29 190.034 1272.29 217.364C1272.29 219.401 1272.41 221.433 1272.65 223.452L1272.66 223.56L1272.74 224.093C1274.05 233.927 1278.25 242.952 1284.87 250.255C1284.87 250.252 1284.88 250.259 1284.91 250.297C1292.26 258.383 1302.24 263.893 1313.3 265.954L1313.44 265.982V265.968L1314.16 266.088C1314.53 266.15 1314.92 266.212 1315.44 266.293C1330 268.044 1342.92 265.945 1353.86 260.437C1356.55 259.08 1358.98 257.582 1361.08 256C1361.75 255.491 1362.36 254.998 1362.88 254.537C1363.15 254.299 1363.37 254.099 1363.48 253.983C1365.95 251.441 1366.11 250.539 1364.62 248.218C1362.98 245.609 1361.53 243.386 1360.29 241.546C1359.86 240.902 1359.48 240.353 1359.16 239.897C1358.99 239.647 1358.99 239.647 1358.88 239.489C1358.83 239.427 1358.83 239.427 1358.8 239.388L1358.79 239.368C1357.44 237.689 1356.52 237.536 1355.02 238.857C1354.86 238.998 1354.33 239.41 1354.23 239.512C1343.71 248.857 1329.34 251.863 1314.99 248.86C1312.32 248.143 1309.82 247.231 1307.52 246.131C1298.53 241.623 1292.16 233.591 1290.32 224.294L1290.17 223.56H1362.57ZM1177.64 205.632C1181.44 193.257 1192.91 185.007 1206.29 185.007C1219.07 185.007 1231.24 193.684 1235.44 205.608L1235.73 206.428H1177.4L1177.64 205.632ZM1248.71 223.56C1248.79 223.563 1248.79 223.563 1248.9 223.565C1249.02 223.563 1249.02 223.563 1249.14 223.56C1251.93 223.432 1254.14 221.051 1254.14 218.154C1254.14 218.013 1254.14 217.892 1254.12 217.698C1254.13 217.662 1254.13 217.591 1254.13 217.364C1254.13 190.034 1232.7 167.886 1206.28 167.886C1179.85 167.886 1158.43 190.034 1158.43 217.364C1158.43 219.401 1158.55 221.433 1158.79 223.452L1158.8 223.56L1158.88 224.093C1160.19 233.927 1164.39 242.952 1171.01 250.255C1171.01 250.252 1171.02 250.259 1171.05 250.297C1178.4 258.383 1188.37 263.893 1199.44 265.954L1199.58 265.982V265.968L1200.3 266.088C1200.67 266.15 1201.06 266.212 1201.58 266.293C1216.15 268.044 1229.06 265.945 1240 260.437C1242.69 259.08 1245.11 257.582 1247.21 256C1247.89 255.491 1248.5 254.998 1249.02 254.537C1249.29 254.299 1249.51 254.099 1249.62 253.983C1252.09 251.441 1252.24 250.539 1250.76 248.218C1249.12 245.609 1247.67 243.386 1246.43 241.546C1246 240.902 1245.62 240.353 1245.3 239.897C1245.13 239.647 1245.13 239.647 1245.02 239.489C1244.97 239.427 1244.97 239.427 1244.94 239.388L1244.93 239.368C1243.58 237.689 1242.66 237.536 1241.16 238.857C1241 238.998 1240.47 239.41 1240.37 239.512C1229.85 248.857 1215.48 251.863 1201.13 248.86C1198.46 248.143 1195.96 247.231 1193.66 246.131C1184.67 241.623 1178.3 233.591 1176.46 224.294L1176.32 223.56H1248.71ZM1090.74 250.81C1072.95 250.81 1058.39 236.7 1057.95 219.018V217.354C1058.39 199.701 1072.95 185.589 1090.74 185.589C1108.86 185.589 1123.55 200.189 1123.55 218.199C1123.55 236.21 1108.86 250.81 1090.74 250.81ZM1090.76 168.288C1079.08 168.288 1067.93 172.264 1058.97 179.556L1057.95 180.384V171.258C1057.95 168.824 1057.42 168.288 1054.96 168.288H1043.51C1041.01 168.288 1040.52 168.785 1040.52 171.258V316.732C1040.52 319.121 1041.08 319.701 1043.51 319.701H1054.96C1057.4 319.701 1057.95 319.134 1057.95 316.732V256.065L1058.97 256.893C1067.93 264.186 1079.08 268.161 1090.76 268.161C1118.5 268.161 1140.99 245.804 1140.99 218.224C1140.99 190.646 1118.5 168.288 1090.76 168.288ZM972.779 249.696C954.624 249.696 939.906 235.224 939.906 217.366C939.906 199.509 954.625 185.036 972.779 185.036C990.931 185.036 1005.65 199.509 1005.65 217.366C1005.65 235.222 990.932 249.696 972.779 249.696ZM972.79 167.886C944.99 167.886 922.458 190.051 922.458 217.391C922.458 244.73 944.99 266.896 972.79 266.896C1000.59 266.896 1023.12 244.73 1023.12 217.391C1023.12 190.051 1000.59 167.886 972.79 167.886ZM860.591 168.985C850.443 168.985 840.624 172.248 832.477 178.278L831.486 179.011V111.45C831.486 109.211 830.752 108.48 828.513 108.48H816.522C814.101 108.48 813.547 109.059 813.547 111.45V265.573C813.547 267.907 814.145 268.546 816.522 268.546H828.513C830.737 268.546 831.486 267.779 831.486 265.573V215.232C831.611 199.385 844.608 186.594 860.591 186.594C876.616 186.594 889.628 199.447 889.695 215.347V265.573C889.695 268.123 890.12 268.545 892.67 268.545H904.632C907.167 268.545 907.606 268.111 907.606 265.573V215.199C907.511 189.788 886.322 168.985 860.591 168.985ZM693.507 240.589L693.479 240.632C691.77 243.222 691.054 244.312 690.653 244.937C689.306 246.944 689.473 247.838 691.531 249.578C696.335 253.451 702.51 257.518 706.676 259.554C718.267 265.222 730.787 268.218 744.054 268.489C752.624 268.921 763.388 266.883 771.403 263.309C785.914 256.836 795.156 244.219 796.776 228.68C799.4 203.5 783.017 187.76 740.817 175.075L740.806 175.071C721.145 168.73 711.909 160.301 711.906 148.531C712.485 135.523 724.545 125.805 740.817 125.199C753.925 125.232 765.514 128.713 776.9 136.04C779.301 137.497 780.409 137.228 782.023 135.134C782.209 134.824 782.725 134.075 784.883 130.975L784.89 130.965C786.905 128.07 787.569 127.104 787.734 126.818C789.094 124.259 788.9 123.272 786.444 121.531C784.026 119.799 777.215 116.255 773.32 114.7C762.487 110.378 751.287 108.279 740.14 108.496C714.772 109.047 694.988 125.545 693.684 147.188C692.857 162.821 700.791 175.392 717.369 184.686C722.016 187.139 739.009 193.562 746.94 195.885C769.491 202.489 781.249 214.638 778.819 228.971C776.613 241.994 762.968 250.655 743.82 251.248C729.935 250.959 715.945 245.87 703.797 236.742C703.737 236.697 703.428 236.468 702.861 236.045C702.063 235.45 702.063 235.45 701.943 235.361C699.467 233.651 698.01 233.794 696.498 236.046C696.316 236.325 694.435 239.185 693.507 240.589Z" fill="#EE4D2D"/>
</g>
</g>
<defs>
<clipPath id="clip0_0_1">
<rect width="294" height="320" fill="white" transform="translate(368)"/>
</clipPath>
</defs>
</svg>
