<svg width="844" height="320" viewBox="0 0 844 320" fill="none" xmlns="http://www.w3.org/2000/svg">
<rect width="844" height="320" fill="white"/>
<path d="M377.312 168.756C376.555 162.032 373.43 156.824 367.938 153.131C362.445 149.39 355.532 147.52 347.199 147.52C341.233 147.52 336.072 148.467 331.716 150.361C327.36 152.207 323.974 154.764 321.56 158.031C319.192 161.251 318.009 164.92 318.009 169.04C318.009 172.496 318.813 175.479 320.423 177.989C322.08 180.498 324.235 182.605 326.886 184.31C329.585 185.967 332.473 187.364 335.551 188.5C338.629 189.589 341.588 190.489 344.429 191.199L358.634 194.892C363.274 196.028 368.032 197.567 372.909 199.509C377.786 201.45 382.308 204.007 386.474 207.179C390.641 210.351 394.003 214.281 396.56 218.969C399.164 223.656 400.466 229.267 400.466 235.801C400.466 244.04 398.335 251.355 394.074 257.747C389.86 264.139 383.728 269.182 375.679 272.875C367.677 276.568 357.994 278.415 346.631 278.415C335.741 278.415 326.318 276.687 318.364 273.23C310.409 269.774 304.183 264.873 299.685 258.528C295.187 252.136 292.701 244.561 292.227 235.801H314.244C314.67 241.057 316.375 245.437 319.358 248.94C322.388 252.397 326.247 254.977 330.935 256.682C335.67 258.339 340.854 259.168 346.489 259.168C352.691 259.168 358.207 258.197 363.037 256.256C367.914 254.267 371.749 251.521 374.543 248.017C377.336 244.466 378.733 240.323 378.733 235.588C378.733 231.279 377.502 227.752 375.04 225.006C372.625 222.259 369.334 219.987 365.168 218.188C361.048 216.388 356.384 214.802 351.176 213.429L333.989 208.741C322.341 205.569 313.108 200.905 306.29 194.75C299.519 188.595 296.134 180.451 296.134 170.318C296.134 161.937 298.406 154.622 302.952 148.372C307.497 142.122 313.652 137.269 321.418 133.812C329.183 130.309 337.942 128.557 347.696 128.557C357.545 128.557 366.233 130.285 373.761 133.741C381.337 137.198 387.303 141.956 391.659 148.017C396.015 154.03 398.288 160.943 398.477 168.756H377.312ZM494.092 230.759V166.909H515.398V276H494.518V257.108H493.381C490.872 262.932 486.847 267.785 481.308 271.668C475.815 275.503 468.973 277.42 460.782 277.42C453.774 277.42 447.572 275.882 442.174 272.804C436.824 269.679 432.61 265.062 429.532 258.955C426.502 252.847 424.987 245.295 424.987 236.298V166.909H446.222V233.741C446.222 241.175 448.282 247.094 452.401 251.497C456.521 255.901 461.871 258.102 468.452 258.102C472.43 258.102 476.383 257.108 480.313 255.119C484.29 253.131 487.581 250.124 490.185 246.099C492.837 242.075 494.139 236.961 494.092 230.759ZM543.932 316.909V166.909H564.67V184.594H566.446C567.677 182.321 569.453 179.693 571.773 176.71C574.093 173.727 577.313 171.123 581.432 168.898C585.551 166.625 590.996 165.489 597.767 165.489C606.574 165.489 614.434 167.714 621.347 172.165C628.259 176.616 633.681 183.031 637.611 191.412C641.588 199.793 643.577 209.878 643.577 221.668C643.577 233.457 641.612 243.566 637.682 251.994C633.752 260.375 628.354 266.838 621.489 271.384C614.623 275.882 606.787 278.131 597.98 278.131C591.351 278.131 585.93 277.018 581.716 274.793C577.549 272.567 574.282 269.963 571.915 266.98C569.547 263.997 567.724 261.346 566.446 259.026H565.168V316.909H543.932ZM564.741 221.455C564.741 229.125 565.854 235.848 568.08 241.625C570.305 247.402 573.525 251.923 577.739 255.19C581.953 258.41 587.114 260.02 593.222 260.02C599.566 260.02 604.869 258.339 609.131 254.977C613.392 251.568 616.612 246.952 618.79 241.128C621.015 235.304 622.128 228.746 622.128 221.455C622.128 214.258 621.039 207.795 618.861 202.065C616.73 196.336 613.51 191.814 609.202 188.5C604.94 185.186 599.614 183.528 593.222 183.528C587.066 183.528 581.858 185.115 577.597 188.287C573.383 191.459 570.187 195.886 568.009 201.568C565.83 207.25 564.741 213.879 564.741 221.455ZM714.386 278.202C703.638 278.202 694.382 275.905 686.616 271.312C678.899 266.672 672.933 260.162 668.719 251.781C664.552 243.353 662.469 233.481 662.469 222.165C662.469 210.991 664.552 201.142 668.719 192.619C672.933 184.097 678.804 177.444 686.332 172.662C693.908 167.88 702.762 165.489 712.895 165.489C719.05 165.489 725.016 166.507 730.793 168.543C736.569 170.579 741.754 173.775 746.347 178.131C750.939 182.487 754.562 188.145 757.213 195.105C759.865 202.018 761.19 210.422 761.19 220.318V227.847H674.472V211.938H740.381C740.381 206.35 739.244 201.402 736.972 197.094C734.699 192.738 731.503 189.305 727.384 186.795C723.312 184.286 718.529 183.031 713.037 183.031C707.071 183.031 701.863 184.499 697.412 187.435C693.009 190.323 689.599 194.111 687.185 198.798C684.817 203.438 683.634 208.481 683.634 213.926V226.355C683.634 233.647 684.912 239.849 687.469 244.963C690.073 250.077 693.695 253.983 698.335 256.682C702.975 259.333 708.397 260.659 714.599 260.659C718.624 260.659 722.294 260.091 725.608 258.955C728.922 257.771 731.787 256.019 734.202 253.699C736.616 251.379 738.463 248.514 739.741 245.105L759.841 248.727C758.231 254.646 755.343 259.83 751.176 264.281C747.057 268.685 741.872 272.117 735.622 274.58C729.42 276.994 722.341 278.202 714.386 278.202ZM784.752 276V166.909H805.278V184.239H806.414C808.403 178.367 811.906 173.751 816.925 170.389C821.992 166.98 827.721 165.276 834.113 165.276C835.439 165.276 837.001 165.323 838.8 165.418C840.647 165.512 842.091 165.631 843.133 165.773V186.085C842.281 185.848 840.765 185.588 838.587 185.304C836.409 184.973 834.231 184.807 832.053 184.807C827.034 184.807 822.56 185.872 818.63 188.003C814.747 190.086 811.67 192.998 809.397 196.739C807.124 200.432 805.988 204.646 805.988 209.381V276H784.752Z" fill="white"/>
<g clip-path="url(#clip0_0_1)">
<rect width="294" height="320" fill="white"/>
<path d="M233 0H0V261H233V0Z" fill="white"/>
<mask id="mask0_0_1" style="mask-type:luminance" maskUnits="userSpaceOnUse" x="15" y="10" width="959" height="320">
<path d="M974 10H15V329.701H974V10Z" fill="white"/>
</mask>
<g mask="url(#mask0_0_1)">
<path fill-rule="evenodd" clip-rule="evenodd" d="M190.001 235.642C188.319 250.121 179.905 261.717 166.872 267.524C159.614 270.758 149.869 272.505 142.156 271.956C130.122 271.477 118.818 268.425 108.397 262.847C104.674 260.853 99.1244 256.872 94.8635 253.143C93.7842 252.201 93.656 251.597 94.3702 250.54C94.7558 249.934 95.4668 248.84 97.0386 246.439C99.3172 242.957 99.602 242.52 99.8581 242.112C100.588 240.945 101.772 240.843 102.941 241.802C103.064 241.902 103.064 241.902 103.157 241.977C103.349 242.132 103.349 242.132 103.801 242.499C104.259 242.871 104.53 243.09 104.64 243.176C115.878 252.355 128.967 257.648 142.181 258.177C160.565 257.916 173.785 249.296 176.153 236.061C178.758 221.495 167.793 208.912 146.338 201.899C139.629 199.706 122.669 192.627 119.542 190.714C104.856 181.73 97.9909 169.961 98.9662 155.426C100.461 135.277 118.399 120.249 141.065 120.148C151.202 120.127 161.317 122.323 171.033 126.593C174.474 128.105 180.617 131.591 182.738 133.242C183.959 134.177 184.201 135.268 183.5 136.444C183.11 137.126 182.463 138.207 181.101 140.461L181.085 140.486C179.292 143.455 179.236 143.548 178.825 144.242C178.113 145.371 177.278 145.476 175.996 144.628C165.598 137.344 154.071 133.68 141.394 133.415C125.611 133.741 113.782 143.535 113.004 156.878C112.797 168.929 121.465 177.727 140.189 184.435C178.194 197.17 192.738 212.101 190.001 235.642ZM143.065 27.6042C167.808 27.6042 187.978 52.0895 188.921 82.7399H97.2093C98.153 52.0895 118.322 27.6042 143.065 27.6042ZM271.121 88.5024C271.121 85.3198 268.663 82.7399 265.632 82.7399H206.187C204.729 42.27 177.026 10 143.065 10C109.105 10 81.4021 42.27 79.9437 82.7399L20.4138 82.7411C17.4291 82.7976 15.0259 85.356 15.0259 88.5024C15.0259 88.6529 15.0313 88.8022 15.042 88.9492H15L23.486 284.009C23.4871 284.552 23.5064 285.1 23.5452 285.65C23.5538 285.775 23.5635 285.898 23.5732 286.021L23.5915 286.433L23.612 286.455C24.9014 300.028 34.3481 310.96 47.1933 311.465L47.2225 311.494H236.055C236.145 311.495 236.235 311.496 236.324 311.496C236.413 311.496 236.503 311.495 236.592 311.494H236.994L237.003 311.486C250.072 311.114 260.658 300.029 261.777 286.288L261.783 286.282L261.792 286.097C261.802 285.952 261.812 285.809 261.821 285.664C261.842 285.318 261.855 284.973 261.861 284.63L271.12 88.8H271.113C271.119 88.7016 271.121 88.602 271.121 88.5024ZM900.639 215.632C904.278 203.257 915.279 195.007 928.116 195.007C940.37 195.007 952.036 203.684 956.067 215.608L956.343 216.428H900.404L900.639 215.632ZM968.793 233.56C968.869 233.563 968.869 233.563 968.975 233.565C969.09 233.563 969.09 233.563 969.205 233.56C971.881 233.432 974 231.051 974 228.154C974 228.013 974 227.892 973.99 227.698C973.99 227.662 973.99 227.591 973.99 227.364C973.99 200.034 953.441 177.886 928.1 177.886C902.76 177.886 882.213 200.034 882.213 227.364C882.213 229.401 882.326 231.433 882.555 233.452L882.571 233.56L882.642 234.093C883.904 243.927 887.928 252.952 894.282 260.255C894.279 260.252 894.286 260.259 894.318 260.297C901.364 268.383 910.931 273.893 921.542 275.954L921.68 275.982V275.968L922.369 276.088C922.723 276.15 923.097 276.212 923.598 276.293C937.563 278.044 949.951 275.945 960.44 270.437C963.019 269.08 965.35 267.582 967.364 266C968.006 265.491 968.591 264.998 969.09 264.537C969.349 264.299 969.56 264.099 969.665 263.983C972.034 261.441 972.188 260.539 970.759 258.218C969.186 255.609 967.795 253.386 966.606 251.546C966.194 250.902 965.829 250.353 965.522 249.897C965.359 249.647 965.359 249.647 965.254 249.489C965.206 249.427 965.206 249.427 965.177 249.388L965.168 249.368C963.873 247.689 962.991 247.536 961.552 248.857C961.399 248.998 960.89 249.41 960.795 249.512C950.704 258.857 936.923 261.863 923.162 258.86C920.6 258.143 918.203 257.231 915.996 256.131C907.374 251.623 901.266 243.591 899.503 234.294L899.364 233.56H968.793ZM791.448 215.632C795.085 203.257 806.087 195.007 818.924 195.007C831.177 195.007 842.843 203.684 846.875 215.608L847.15 216.428H791.213L791.448 215.632ZM859.6 233.56C859.676 233.563 859.676 233.563 859.787 233.565C859.897 233.563 859.897 233.563 860.01 233.56C862.688 233.432 864.808 231.051 864.808 228.154C864.808 228.013 864.803 227.892 864.793 227.698C864.795 227.662 864.795 227.591 864.795 227.364C864.795 200.034 844.248 177.886 818.908 177.886C793.569 177.886 773.02 200.034 773.02 227.364C773.02 229.401 773.136 231.433 773.364 233.452L773.378 233.56L773.45 234.093C774.711 243.927 778.735 252.952 785.09 260.255C785.087 260.252 785.093 260.259 785.126 260.297C792.172 268.383 801.739 273.893 812.349 275.954L812.487 275.982V275.968L813.177 276.088C813.531 276.15 813.905 276.212 814.406 276.293C828.372 278.044 840.759 275.945 851.248 270.437C853.832 269.08 856.153 267.582 858.166 266C858.814 265.491 859.396 264.998 859.9 264.537C860.159 264.299 860.366 264.099 860.476 263.983C862.842 261.441 862.99 260.539 861.562 258.218C859.99 255.609 858.604 253.386 857.414 251.546C856.999 250.902 856.637 250.353 856.334 249.897C856.165 249.647 856.164 249.647 856.057 249.489C856.017 249.427 856.017 249.427 855.987 249.388L855.978 249.368C854.683 247.689 853.798 247.536 852.363 248.857C852.21 248.998 851.699 249.41 851.606 249.512C841.516 258.857 827.734 261.863 813.974 258.86C811.411 258.143 809.015 257.231 806.807 256.131C798.186 251.623 792.079 243.591 790.316 234.294L790.176 233.56H859.6ZM708.112 260.81C691.046 260.81 677.088 246.7 676.659 229.018V227.354C677.083 209.701 691.046 195.589 708.112 195.589C725.488 195.589 739.574 210.189 739.574 228.199C739.574 246.21 725.488 260.81 708.112 260.81ZM708.123 178.288C696.929 178.288 686.233 182.264 677.637 189.556L676.66 190.384V181.258C676.66 178.824 676.159 178.288 673.797 178.288H662.81C660.418 178.288 659.946 178.785 659.946 181.258V326.732C659.946 329.121 660.48 329.701 662.81 329.701H673.797C676.136 329.701 676.66 329.134 676.66 326.732V266.065L677.637 266.893C686.234 274.186 696.93 278.161 708.123 278.161C734.729 278.161 756.298 255.804 756.298 228.224C756.298 200.646 734.729 178.288 708.123 178.288ZM594.983 259.696C577.572 259.696 563.458 245.224 563.458 227.366C563.458 209.509 577.573 195.036 594.983 195.036C612.391 195.036 626.506 209.509 626.506 227.366C626.506 245.222 612.392 259.696 594.983 259.696ZM594.994 177.886C568.333 177.886 546.725 200.051 546.725 227.391C546.725 254.73 568.333 276.896 594.994 276.896C621.652 276.896 643.258 254.73 643.258 227.391C643.258 200.051 621.653 177.886 594.994 177.886ZM487.395 178.985C477.663 178.985 468.246 182.248 460.433 188.278L459.483 189.011V121.45C459.483 119.211 458.779 118.48 456.632 118.48H445.133C442.811 118.48 442.28 119.059 442.28 121.45V275.573C442.28 277.907 442.853 278.546 445.133 278.546H456.632C458.765 278.546 459.483 277.779 459.483 275.573V225.232C459.603 209.385 472.067 196.594 487.395 196.594C502.763 196.594 515.241 209.447 515.306 225.347V275.573C515.306 278.123 515.713 278.545 518.159 278.545H529.63C532.061 278.545 532.482 278.111 532.482 275.573V225.199C532.391 199.788 512.071 178.985 487.395 178.985ZM327.161 250.589L327.134 250.632C325.495 253.222 324.809 254.312 324.424 254.937C323.132 256.944 323.293 257.838 325.266 259.578C329.873 263.451 335.795 267.518 339.79 269.554C350.906 275.222 362.913 278.218 375.636 278.489C383.854 278.921 394.177 276.883 401.863 273.309C415.78 266.836 424.643 254.219 426.196 238.68C428.713 213.5 413.001 197.76 372.531 185.075L372.521 185.071C353.666 178.73 344.809 170.301 344.806 158.531C345.361 145.523 356.927 135.805 372.531 135.199C385.102 135.232 396.216 138.713 407.135 146.04C409.438 147.497 410.5 147.228 412.048 145.134C412.226 144.824 412.721 144.075 414.791 140.975L414.798 140.965C416.73 138.07 417.367 137.104 417.525 136.818C418.829 134.259 418.643 133.272 416.288 131.531C413.969 129.799 407.437 126.255 403.702 124.7C393.313 120.378 382.572 118.279 371.882 118.496C347.554 119.047 328.581 135.545 327.331 157.188C326.538 172.821 334.147 185.392 350.045 194.686C354.501 197.139 370.798 203.562 378.403 205.885C400.03 212.489 411.306 224.638 408.975 238.971C406.86 251.994 393.774 260.655 375.411 261.248C362.096 260.959 348.679 255.87 337.029 246.742C336.972 246.697 336.675 246.468 336.132 246.045C335.366 245.45 335.366 245.45 335.251 245.361C332.877 243.651 331.48 243.794 330.03 246.046C329.855 246.325 328.051 249.185 327.161 250.589Z" fill="#EE4D2D"/>
</g>
</g>
<defs>
<clipPath id="clip0_0_1">
<rect width="294" height="320" fill="white"/>
</clipPath>
</defs>
</svg>
