<svg width="279" height="310" viewBox="0 0 279 310" fill="none" xmlns="http://www.w3.org/2000/svg">
<path fill-rule="evenodd" clip-rule="evenodd" d="M175.001 225.642C173.319 240.121 164.905 251.717 151.872 257.524C144.614 260.758 134.869 262.505 127.156 261.956C115.122 261.477 103.818 258.425 93.397 252.847C89.6742 250.853 84.1244 246.872 79.8635 243.143C78.7842 242.201 78.656 241.597 79.3702 240.54C79.7558 239.934 80.4668 238.84 82.0386 236.439C84.3172 232.957 84.602 232.52 84.8581 232.112C85.5879 230.945 86.7722 230.843 87.9413 231.802C88.064 231.902 88.064 231.902 88.157 231.977C88.3488 232.132 88.3488 232.132 88.8005 232.499C89.2589 232.871 89.5303 233.09 89.6396 233.176C100.878 242.355 113.967 247.648 127.181 248.177C145.565 247.916 158.785 239.296 161.153 226.061C163.758 211.495 152.793 198.912 131.338 191.899C124.629 189.706 107.669 182.627 104.542 180.714C89.8564 171.73 82.9909 159.961 83.9662 145.426C85.4613 125.277 103.399 110.249 126.065 110.148C136.202 110.127 146.317 112.323 156.033 116.593C159.474 118.105 165.617 121.591 167.738 123.242C168.959 124.177 169.201 125.268 168.5 126.444C168.11 127.126 167.463 128.207 166.101 130.461L166.085 130.486C164.292 133.455 164.236 133.548 163.825 134.242C163.113 135.371 162.278 135.476 160.996 134.628C150.598 127.344 139.071 123.68 126.394 123.415C110.611 123.741 98.7818 133.535 98.004 146.878C97.7969 158.929 106.465 167.727 125.189 174.435C163.194 187.17 177.738 202.101 175.001 225.642ZM128.065 17.6042C152.808 17.6042 172.978 42.0895 173.921 72.7399H82.2093C83.153 42.0895 103.322 17.6042 128.065 17.6042ZM256.121 78.5024C256.121 75.3198 253.663 72.7399 250.632 72.7399H191.187C189.729 32.27 162.026 0 128.065 0C94.1047 0 66.4021 32.27 64.9437 72.7399L5.41384 72.7411C2.42905 72.7976 0.0258934 75.356 0.0258934 78.5024C0.0258934 78.6529 0.0312637 78.8022 0.0420045 78.9492H0L8.486 274.009C8.48705 274.552 8.50643 275.1 8.54517 275.65C8.5538 275.775 8.56349 275.898 8.57317 276.021L8.59149 276.433L8.61201 276.455C9.90139 290.028 19.3481 300.96 32.1933 301.465L32.2225 301.494H221.055C221.145 301.495 221.235 301.496 221.324 301.496C221.413 301.496 221.503 301.495 221.592 301.494H221.994L222.003 301.486C235.072 301.114 245.658 290.029 246.777 276.288L246.783 276.282L246.792 276.097C246.802 275.952 246.812 275.809 246.821 275.664C246.842 275.318 246.855 274.973 246.861 274.63L256.12 78.8H256.113C256.119 78.7016 256.121 78.602 256.121 78.5024ZM885.639 205.632C889.278 193.257 900.279 185.007 913.116 185.007C925.37 185.007 937.036 193.684 941.067 205.608L941.343 206.428H885.404L885.639 205.632ZM953.793 223.56C953.869 223.563 953.869 223.563 953.975 223.565C954.09 223.563 954.09 223.563 954.205 223.56C956.881 223.432 959 221.051 959 218.154C959 218.013 959 217.892 958.99 217.698C958.99 217.662 958.99 217.591 958.99 217.364C958.99 190.034 938.441 167.886 913.1 167.886C887.76 167.886 867.213 190.034 867.213 217.364C867.213 219.401 867.326 221.433 867.556 223.452L867.571 223.56L867.642 224.093C868.904 233.927 872.928 242.952 879.282 250.255C879.279 250.252 879.286 250.259 879.318 250.297C886.364 258.383 895.931 263.893 906.542 265.954L906.68 265.982V265.968L907.369 266.088C907.723 266.15 908.097 266.212 908.598 266.293C922.563 268.044 934.951 265.945 945.44 260.437C948.019 259.08 950.35 257.582 952.364 256C953.006 255.491 953.591 254.998 954.09 254.537C954.349 254.299 954.56 254.099 954.665 253.983C957.034 251.441 957.187 250.539 955.759 248.218C954.186 245.609 952.795 243.386 951.606 241.546C951.194 240.902 950.829 240.353 950.522 239.897C950.359 239.647 950.359 239.647 950.254 239.489C950.206 239.427 950.206 239.427 950.177 239.388L950.168 239.368C948.873 237.689 947.991 237.536 946.552 238.857C946.399 238.998 945.89 239.41 945.795 239.512C935.704 248.857 921.923 251.863 908.162 248.86C905.6 248.143 903.203 247.231 900.996 246.131C892.374 241.623 886.266 233.591 884.503 224.294L884.364 223.56H953.793ZM776.448 205.632C780.085 193.257 791.087 185.007 803.924 185.007C816.177 185.007 827.843 193.684 831.875 205.608L832.15 206.428H776.213L776.448 205.632ZM844.6 223.56C844.676 223.563 844.676 223.563 844.787 223.565C844.897 223.563 844.897 223.563 845.01 223.56C847.688 223.432 849.808 221.051 849.808 218.154C849.808 218.013 849.803 217.892 849.793 217.698C849.795 217.662 849.795 217.591 849.795 217.364C849.795 190.034 829.248 167.886 803.908 167.886C778.569 167.886 758.02 190.034 758.02 217.364C758.02 219.401 758.136 221.433 758.364 223.452L758.378 223.56L758.45 224.093C759.711 233.927 763.735 242.952 770.09 250.255C770.087 250.252 770.093 250.259 770.126 250.297C777.172 258.383 786.739 263.893 797.349 265.954L797.487 265.982V265.968L798.177 266.088C798.531 266.15 798.905 266.212 799.406 266.293C813.372 268.044 825.759 265.945 836.248 260.437C838.832 259.08 841.153 257.582 843.166 256C843.814 255.491 844.396 254.998 844.9 254.537C845.159 254.299 845.366 254.099 845.475 253.983C847.842 251.441 847.99 250.539 846.562 248.218C844.99 245.609 843.604 243.386 842.414 241.546C841.999 240.902 841.637 240.353 841.334 239.897C841.165 239.647 841.164 239.647 841.057 239.489C841.017 239.427 841.017 239.427 840.987 239.388L840.978 239.368C839.683 237.689 838.798 237.536 837.363 238.857C837.21 238.998 836.699 239.41 836.606 239.512C826.516 248.857 812.734 251.863 798.974 248.86C796.411 248.143 794.015 247.231 791.807 246.131C783.186 241.623 777.079 233.591 775.316 224.294L775.176 223.56H844.6ZM693.112 250.81C676.046 250.81 662.088 236.7 661.659 219.018V217.354C662.083 199.701 676.046 185.589 693.112 185.589C710.488 185.589 724.574 200.189 724.574 218.199C724.574 236.21 710.488 250.81 693.112 250.81ZM693.123 168.288C681.929 168.288 671.233 172.264 662.637 179.556L661.66 180.384V171.258C661.66 168.824 661.159 168.288 658.797 168.288H647.81C645.418 168.288 644.946 168.785 644.946 171.258V316.732C644.946 319.121 645.48 319.701 647.81 319.701H658.797C661.136 319.701 661.66 319.134 661.66 316.732V256.065L662.637 256.893C671.234 264.186 681.93 268.161 693.123 268.161C719.729 268.161 741.298 245.804 741.298 218.224C741.298 190.646 719.729 168.288 693.123 168.288ZM579.983 249.696C562.572 249.696 548.458 235.224 548.458 217.366C548.458 199.509 562.573 185.036 579.983 185.036C597.391 185.036 611.506 199.509 611.506 217.366C611.506 235.222 597.392 249.696 579.983 249.696ZM579.994 167.886C553.333 167.886 531.725 190.051 531.725 217.391C531.725 244.73 553.333 266.896 579.994 266.896C606.652 266.896 628.258 244.73 628.258 217.391C628.258 190.051 606.653 167.886 579.994 167.886ZM472.395 168.985C462.663 168.985 453.246 172.248 445.433 178.278L444.483 179.011V111.45C444.483 109.211 443.779 108.48 441.632 108.48H430.133C427.811 108.48 427.28 109.059 427.28 111.45V265.573C427.28 267.907 427.853 268.546 430.133 268.546H441.632C443.765 268.546 444.483 267.779 444.483 265.573V215.232C444.603 199.385 457.067 186.594 472.395 186.594C487.763 186.594 500.241 199.447 500.306 215.347V265.573C500.306 268.123 500.713 268.545 503.159 268.545H514.63C517.061 268.545 517.482 268.111 517.482 265.573V215.199C517.391 189.788 497.071 168.985 472.395 168.985ZM312.161 240.589L312.134 240.632C310.495 243.222 309.809 244.312 309.424 244.937C308.132 246.944 308.293 247.838 310.266 249.578C314.873 253.451 320.795 257.518 324.79 259.554C335.906 265.222 347.913 268.218 360.636 268.489C368.854 268.921 379.177 266.883 386.863 263.309C400.78 256.836 409.643 244.219 411.196 228.68C413.713 203.5 398.001 187.76 357.531 175.075L357.521 175.071C338.666 168.73 329.809 160.301 329.806 148.531C330.361 135.523 341.927 125.805 357.531 125.199C370.102 125.232 381.216 128.713 392.135 136.04C394.438 137.497 395.5 137.228 397.048 135.134C397.226 134.824 397.721 134.075 399.791 130.975L399.798 130.965C401.73 128.07 402.367 127.104 402.525 126.818C403.829 124.259 403.643 123.272 401.288 121.531C398.969 119.799 392.437 116.255 388.702 114.7C378.313 110.378 367.572 108.279 356.882 108.496C332.554 109.047 313.581 125.545 312.331 147.188C311.538 162.821 319.147 175.392 335.045 184.686C339.501 187.139 355.798 193.562 363.403 195.885C385.03 202.489 396.306 214.638 393.975 228.971C391.86 241.994 378.774 250.655 360.411 251.248C347.096 250.959 333.679 245.87 322.029 236.742C321.972 236.697 321.675 236.468 321.132 236.045C320.366 235.45 320.366 235.45 320.251 235.361C317.877 233.651 316.48 233.794 315.03 236.046C314.855 236.325 313.051 239.185 312.161 240.589Z" fill="#EE4D2D"/>
</svg>
